<svg xmlns="http://www.w3.org/2000/svg" preserveAspectRatio="xMidYMid"
     width="85" height="65" viewBox="0 0 85 65">
    <defs>
        <style>
            .cls-1 {
            fill: #fff;
            stroke: #fff;
            stroke-linejoin: round;
            stroke-width: 1px;
            opacity: 0.8;
            fill-rule: evenodd;
            }
        </style>
    </defs>
    <path d="M79.736,17.355 C68.033,8.503 55.907,4.014 43.696,4.014 C31.234,4.014 18.321,8.696 5.316,17.929 L4.436,18.554 L23.970,50.669 L24.929,50.179 C26.320,49.468 27.754,48.844 29.223,48.312 C29.414,48.711 29.601,49.083 29.773,49.424 L29.773,60.986 L32.092,60.986 L32.092,48.871 L31.923,48.536 C31.770,48.235 31.609,47.917 31.447,47.586 C34.594,46.670 37.841,46.188 41.160,46.150 C41.629,47.407 42.183,48.524 42.638,49.423 L42.638,60.986 L44.957,60.986 L44.957,48.871 L44.794,48.549 C44.438,47.845 44.038,47.054 43.671,46.202 C47.461,46.407 51.406,47.166 55.461,48.471 C55.616,48.790 55.774,49.108 55.934,49.424 L55.934,60.986 L58.253,60.986 L58.253,49.452 C58.895,49.695 59.539,49.947 60.185,50.217 L61.114,50.604 L80.564,17.981 L79.736,17.355 ZM60.146,47.697 C59.153,47.302 58.149,46.932 57.137,46.588 C55.907,43.862 54.909,42.442 56.897,39.277 C59.118,35.586 59.408,33.604 58.958,31.009 L63.701,31.009 L57.689,14.422 L51.677,31.009 L56.594,31.009 C57.118,33.291 56.804,34.934 54.920,38.064 C52.845,41.368 53.305,42.852 54.291,45.696 C50.364,44.581 46.535,43.962 42.841,43.848 C42.285,41.742 42.244,41.450 43.610,39.275 C45.824,35.583 46.111,33.602 45.661,31.009 L50.402,31.009 L44.390,14.428 L38.380,31.009 L43.297,31.009 C43.821,33.290 43.509,34.933 41.633,38.064 C39.989,40.680 39.933,41.409 40.469,43.843 C37.088,43.937 33.735,44.477 30.496,45.450 C29.529,42.945 29.015,42.016 30.735,39.277 C32.956,35.587 33.246,33.604 32.796,31.009 L37.528,31.009 L31.529,14.428 L25.517,31.009 L30.432,31.009 C30.957,33.291 30.642,34.934 28.759,38.064 C26.564,41.558 27.204,43.254 28.304,46.180 C27.126,46.611 25.970,47.097 24.839,47.638 L7.542,19.199 C19.845,10.660 32.005,6.332 43.696,6.332 C55.103,6.332 66.474,10.453 77.506,18.583 L60.146,47.697 Z"
          class="cls-1"/>
</svg>
